<svg width="16" height="17" viewBox="0 0 16 17" fill="none" xmlns="http://www.w3.org/2000/svg">
<path fill-rule="evenodd" clip-rule="evenodd" d="M8.53333 3.1C8.53333 2.76863 8.2647 2.5 7.93333 2.5C7.60196 2.5 7.33333 2.76863 7.33333 3.1V7.8332L2.6 7.8332C2.26863 7.8332 2 8.10183 2 8.4332C2 8.76457 2.26863 9.0332 2.6 9.0332L7.33333 9.0332V13.7667C7.33333 14.098 7.60196 14.3667 7.93333 14.3667C8.2647 14.3667 8.53333 14.098 8.53333 13.7667V9.0332L13.2667 9.0332C13.598 9.0332 13.8667 8.76457 13.8667 8.4332C13.8667 8.10183 13.598 7.8332 13.2667 7.8332L8.53333 7.8332V3.1Z" fill="#FC7373"/>
</svg>
