<svg width="16" height="16" viewBox="0 0 16 16" fill="none" xmlns="http://www.w3.org/2000/svg">
<g opacity="0.2">
<path fill-rule="evenodd" clip-rule="evenodd" d="M8 16C12.4183 16 16 12.4183 16 8C16 3.58172 12.4183 0 8 0C3.58172 0 0 3.58172 0 8C0 12.4183 3.58172 16 8 16ZM9.15734 7.99669L10.9214 9.62327L10.9186 9.62856C11.1767 9.86396 11.1739 10.2501 10.9186 10.4881C10.6633 10.7262 10.2445 10.7262 9.98632 10.4881L8.22222 8.86156L6.45526 10.4908C6.19423 10.7235 5.78978 10.7235 5.53162 10.4908L5.52588 10.4855C5.4054 10.3718 5.33369 10.221 5.33369 10.0623C5.33083 9.89834 5.39967 9.74494 5.52301 9.62856L7.28998 7.99934L5.52588 6.37276C5.26772 6.13737 5.27059 5.75122 5.52588 5.51318C5.78117 5.27515 6.19997 5.27515 6.45813 5.51318L8.22222 7.13712L9.98919 5.50789C10.2502 5.27515 10.6547 5.27515 10.9128 5.50789L10.9186 5.51318C11.171 5.74857 11.1767 6.12943 10.9243 6.36747L9.15734 7.99669Z" fill="black"/>
</g>
</svg>
