<svg width="18" height="18" viewBox="0 0 18 18" fill="none" xmlns="http://www.w3.org/2000/svg">
<path d="M8.14175 2.25C4.89433 2.25 2.25 4.89433 2.25 8.14175C2.25 11.3892 4.89433 14.0335 8.14175 14.0335C9.44072 14.0335 10.7223 13.5928 11.7487 12.7925L11.7893 12.7635L14.5728 15.5412C14.7004 15.6688 14.8744 15.7442 15.0599 15.7442C15.2455 15.7442 15.4137 15.6746 15.547 15.5412C15.6746 15.4137 15.75 15.2397 15.75 15.0541C15.75 14.8686 15.6804 14.7004 15.547 14.567L12.7635 11.7835L12.7925 11.7429C13.5928 10.7165 14.0393 9.43492 14.0393 8.13595C14.0393 4.89433 11.395 2.25 8.14175 2.25ZM8.14175 12.6649C5.6482 12.6649 3.61856 10.6353 3.61856 8.14175C3.61856 5.6482 5.6482 3.61856 8.14175 3.61856C10.6353 3.61856 12.6649 5.6482 12.6649 8.14175C12.6649 10.6353 10.6353 12.6649 8.14175 12.6649Z" fill="black" fill-opacity="0.4"/>
</svg>
