<svg width="19" height="18" viewBox="0 0 19 18" fill="none" xmlns="http://www.w3.org/2000/svg">
<path fill-rule="evenodd" clip-rule="evenodd" d="M10.1 2.925C10.1 2.55221 9.79779 2.25 9.425 2.25C9.05221 2.25 8.75 2.55221 8.75 2.925V8.24985L3.425 8.24985C3.05221 8.24985 2.75 8.55206 2.75 8.92485C2.75 9.29764 3.05221 9.59985 3.425 9.59985L8.75 9.59985V14.925C8.75 15.2978 9.05221 15.6 9.425 15.6C9.79779 15.6 10.1 15.2978 10.1 14.925V9.59985L15.425 9.59985C15.7978 9.59985 16.1 9.29765 16.1 8.92485C16.1 8.55206 15.7978 8.24985 15.425 8.24985L10.1 8.24985V2.925Z" fill="black" fill-opacity="0.4"/>
</svg>
